<svg width="159" height="45" fill="none" xmlns="http://www.w3.org/2000/svg"><path fill-rule="evenodd" clip-rule="evenodd" d="M0 6.429A6.429 6.429 0 016.429 0H38.57A6.429 6.429 0 0145 6.429V38.57A6.429 6.429 0 0138.571 45H6.43A6.429 6.429 0 010 38.571V6.43zm7.065 3.993v24.935h6.623V20.844h.195l5.552 14.318h3.993l5.552-14.22h.195v14.415h6.623V10.422h-8.425l-5.795 14.123h-.293L15.49 10.422H7.065zm14.364 2.435a4.286 4.286 0 100-8.571 4.286 4.286 0 000 8.571z" fill="#005FEC"/><path d="M56.77 32.344h3.616v-9.328c0-1.888 1.258-3.166 2.816-3.166 1.528 0 2.577 1.028 2.577 2.606v9.888h3.546v-9.568c0-1.728 1.028-2.927 2.776-2.927 1.458 0 2.617.86 2.617 2.757v9.738h3.625V22.047c0-3.426-1.977-5.244-4.794-5.244-2.227 0-3.925 1.099-4.604 2.807h-.16c-.589-1.738-2.077-2.807-4.145-2.807-2.057 0-3.595 1.059-4.234 2.807h-.18v-2.607H56.77v15.341zm32.033.3c3.575 0 6.032-1.748 6.672-4.415l-3.376-.38c-.49 1.299-1.688 1.978-3.246 1.978-2.337 0-3.885-1.538-3.915-4.165h10.686v-1.108c0-5.384-3.236-7.75-7.01-7.75-4.395 0-7.262 3.225-7.262 7.96 0 4.813 2.827 7.88 7.45 7.88zm-3.855-9.419c.11-1.957 1.558-3.605 3.715-3.605 2.077 0 3.476 1.518 3.496 3.605h-7.211zm21.396-6.222h-3.027v-3.675h-3.615v3.675h-2.177V19.8h2.177v8.529c-.02 2.886 2.077 4.305 4.794 4.225a7.257 7.257 0 002.127-.36l-.609-2.826c-.2.05-.609.14-1.059.14-.909 0-1.638-.32-1.638-1.778V19.8h3.027v-2.797zm10.684 0h-3.027v-3.675h-3.615v3.675h-2.177V19.8h2.177v8.529c-.02 2.886 2.077 4.305 4.794 4.225a7.257 7.257 0 002.127-.36l-.609-2.826c-.2.05-.609.14-1.059.14-.908 0-1.638-.32-1.638-1.778V19.8h3.027v-2.797zm3.023 15.341h3.616V17.003h-3.616v15.341zm1.818-17.518c1.149 0 2.088-.88 2.088-1.958 0-1.088-.939-1.967-2.088-1.967-1.158 0-2.097.879-2.097 1.967 0 1.079.939 1.958 2.097 1.958zM131 23.355c0-2.217 1.339-3.495 3.246-3.495 1.868 0 2.987 1.228 2.987 3.275v9.209h3.615v-9.768c.01-3.675-2.087-5.773-5.253-5.773-2.298 0-3.876 1.099-4.575 2.807h-.179v-2.607h-3.456v15.341H131v-8.989zm20.195 15.061c4.145 0 7.201-1.897 7.201-5.822V17.003h-3.565v2.537h-.2c-.549-1.109-1.698-2.737-4.405-2.737-3.545 0-6.332 2.777-6.332 7.82 0 5.004 2.787 7.501 6.322 7.501 2.627 0 3.856-1.408 4.415-2.537h.18v2.907c0 2.257-1.498 3.186-3.556 3.186-2.177 0-3.136-1.029-3.575-1.928l-3.256.79c.659 2.146 2.866 3.874 6.771 3.874zm.03-9.128c-2.387 0-3.645-1.858-3.645-4.684 0-2.787 1.238-4.834 3.645-4.834 2.327 0 3.606 1.927 3.606 4.834 0 2.926-1.299 4.684-3.606 4.684z" fill="#18216D"/></svg>