<svg width="14" height="14" viewBox="0 0 14 14" fill="none" xmlns="http://www.w3.org/2000/svg">
<path d="M8.06244 12.9059C8.37494 12.5934 8.34369 12.1246 8.06244 11.8121L4.28119 8.24963L13.2499 8.24963C13.6874 8.24963 13.9999 7.90588 13.9999 7.49963V6.49963C13.9999 6.06213 13.6874 5.74963 13.2499 5.74963L4.28119 5.74963L8.06244 2.15588C8.34369 1.84338 8.34369 1.37463 8.06244 1.06213L7.37494 0.374635C7.06244 0.0933847 6.59369 0.0933847 6.31244 0.374635L0.21869 6.46838C-0.0625602 6.74963 -0.0625602 7.21838 0.21869 7.53088L6.31244 13.5934C6.59369 13.8746 7.06244 13.8746 7.37494 13.5934L8.06244 12.9059Z" fill="#183B56"/>
</svg>
