<svg width="20" height="20" viewBox="0 0 20 20" fill="none" xmlns="http://www.w3.org/2000/svg">
<path d="M17.8111 18.0966C14.7507 20.5949 5.19497 20.5949 2.19707 18.0966C-0.863285 15.5984 -0.55101 4.91841 2.19707 2.10789C4.94514 -0.70263 15.063 -0.70263 17.8111 2.10789C20.5592 4.91841 20.8714 15.5984 17.8111 18.0966Z" fill="#005FEC"/>
<path opacity="0.1" d="M10.0666 13.7545C7.31855 15.9405 4.2582 17.0647 1.38523 17.1271C-0.738294 13.5047 -0.301082 4.69837 2.19716 2.13768C4.44558 -0.173188 11.5031 -0.6104 15.5628 0.826084C16.562 4.9482 14.501 10.1945 10.0666 13.7545Z" fill="white"/>
<path d="M8.56741 15.5657C8.13019 15.5657 7.69303 15.3783 7.4432 15.0036L3.94568 10.5067C3.44602 9.88218 3.57096 9.0078 4.19551 8.50814C4.82006 8.00848 5.69444 8.13342 6.1941 8.75797L8.56741 11.8183L13.8137 5.01062C14.3134 4.38607 15.1878 4.26113 15.8123 4.76079C16.4369 5.26045 16.5618 6.13483 16.0621 6.75938L9.69162 15.0036C9.37934 15.3159 9.00462 15.5657 8.56741 15.5657Z" fill="white"/>
</svg>
