<svg width="159" height="45" viewBox="0 0 159 45" fill="none" xmlns="http://www.w3.org/2000/svg">
<path fill-rule="evenodd" clip-rule="evenodd" d="M0 6.42857C0 2.87817 2.87817 0 6.42857 0H38.5714C42.1218 0 45 2.87817 45 6.42857V38.5714C45 42.1218 42.1218 45 38.5714 45H6.42857C2.87817 45 0 42.1218 0 38.5714V6.42857ZM7.06473 10.4221V35.3571H13.6881V20.8441H13.8829L19.4349 35.1623H23.4284L28.9803 20.9415H29.1751V35.3571H35.7985V10.4221H27.3732L21.5777 24.5454H21.2855L15.4901 10.4221H7.06473ZM21.4286 12.8571C23.7955 12.8571 25.7143 10.9384 25.7143 8.57143C25.7143 6.20449 23.7955 4.28571 21.4286 4.28571C19.0616 4.28571 17.1429 6.20449 17.1429 8.57143C17.1429 10.9384 19.0616 12.8571 21.4286 12.8571Z" fill="#005FEC"/>
<path d="M56.7702 32.344H60.3857V23.0156C60.3857 21.1279 61.6441 19.8495 63.2022 19.8495C64.7303 19.8495 65.779 20.8782 65.779 22.4563V32.344H69.3246V22.7759C69.3246 21.048 70.3533 19.8495 72.1011 19.8495C73.5593 19.8495 74.7179 20.7084 74.7179 22.6061V32.344H78.3434V22.0468C78.3434 18.621 76.3658 16.8033 73.5493 16.8033C71.3221 16.8033 69.6242 17.9019 68.9451 19.6098H68.7852C68.196 17.872 66.7078 16.8033 64.6404 16.8033C62.583 16.8033 61.0449 17.862 60.4057 19.6098H60.2259V17.003H56.7702V32.344Z" fill="#18216D"/>
<path d="M88.8028 32.6436C92.3784 32.6436 94.8353 30.8958 95.4745 28.2291L92.0987 27.8495C91.6093 29.1479 90.4108 29.8271 88.8528 29.8271C86.5157 29.8271 84.9676 28.289 84.9376 25.6623H95.6243V24.5536C95.6243 19.1703 92.3884 16.8033 88.6131 16.8033C84.2185 16.8033 81.3521 20.0293 81.3521 24.7634C81.3521 29.5774 84.1786 32.6436 88.8028 32.6436ZM84.9476 23.2253C85.0575 21.2677 86.5057 19.6198 88.663 19.6198C90.7404 19.6198 92.1387 21.1379 92.1587 23.2253H84.9476Z" fill="#18216D"/>
<path d="M106.344 17.003H103.317V13.3276H99.7018V17.003H97.5245V19.7996H99.7018V28.3289C99.6818 31.2154 101.779 32.6336 104.496 32.5537C105.525 32.5237 106.234 32.324 106.623 32.1941L106.014 29.3677C105.814 29.4176 105.405 29.5075 104.955 29.5075C104.046 29.5075 103.317 29.1879 103.317 27.7297V19.7996H106.344V17.003Z" fill="#18216D"/>
<path d="M117.028 17.003H114.001V13.3276H110.386V17.003H108.209V19.7996H110.386V28.3289C110.366 31.2154 112.463 32.6336 115.18 32.5537C116.209 32.5237 116.918 32.324 117.307 32.1941L116.698 29.3677C116.498 29.4176 116.089 29.5075 115.639 29.5075C114.731 29.5075 114.001 29.1879 114.001 27.7297V19.7996H117.028V17.003Z" fill="#18216D"/>
<path d="M120.051 32.344H123.667V17.003H120.051V32.344ZM121.869 14.8258C123.018 14.8258 123.957 13.9468 123.957 12.8682C123.957 11.7795 123.018 10.9006 121.869 10.9006C120.711 10.9006 119.772 11.7795 119.772 12.8682C119.772 13.9468 120.711 14.8258 121.869 14.8258Z" fill="#18216D"/>
<path d="M131 23.3551C131 21.1379 132.339 19.8595 134.246 19.8595C136.114 19.8595 137.233 21.088 137.233 23.1354V32.344H140.848V22.5761C140.858 18.9007 138.761 16.8033 135.595 16.8033C133.297 16.8033 131.719 17.9019 131.02 19.6098H130.841V17.003H127.385V32.344H131V23.3551Z" fill="#18216D"/>
<path d="M151.195 38.4164C155.34 38.4164 158.396 36.5188 158.396 32.5936V17.003H154.831V19.5399H154.631C154.082 18.4313 152.933 16.8033 150.226 16.8033C146.681 16.8033 143.894 19.5798 143.894 24.6236C143.894 29.6273 146.681 32.1242 150.216 32.1242C152.843 32.1242 154.072 30.716 154.631 29.5874H154.811V32.4938C154.811 34.751 153.313 35.6798 151.255 35.6798C149.078 35.6798 148.119 34.6511 147.68 33.7522L144.424 34.5412C145.083 36.6885 147.29 38.4164 151.195 38.4164ZM151.225 29.2878C148.838 29.2878 147.58 27.4301 147.58 24.6036C147.58 21.8171 148.818 19.7696 151.225 19.7696C153.552 19.7696 154.831 21.6972 154.831 24.6036C154.831 27.5299 153.532 29.2878 151.225 29.2878Z" fill="#18216D"/>
</svg>
